<?xml version="1.0" standalone="no"?>
<!DOCTYPE svg PUBLIC "-//W3C//DTD SVG 20010904//EN"
 "http://www.w3.org/TR/2001/REC-SVG-20010904/DTD/svg10.dtd">
<svg version="1.0" xmlns="http://www.w3.org/2000/svg"
 width="512.000000pt" height="512.000000pt" viewBox="0 0 512.000000 512.000000"
 preserveAspectRatio="xMidYMid meet">
<metadata>
Created by potrace 1.14, written by Peter Selinger 2001-2017
</metadata>
<g transform="translate(0.000000,512.000000) scale(0.100000,-0.100000)"
fill="#000000" stroke="none">
<path d="M1014 5100 c-251 -65 -444 -284 -470 -532 -3 -35 -8 -65 -10 -67 -2
-2 -59 -5 -126 -7 -140 -2 -190 -18 -249 -76 -50 -52 -56 -61 -75 -118 -34
-104 4 -235 87 -301 64 -51 104 -62 229 -65 63 -1 120 -3 126 -3 8 -1 11 -77
10 -268 l-1 -268 -97 -1 c-167 -2 -221 -19 -289 -91 -60 -62 -73 -98 -74 -188
0 -97 26 -157 95 -216 38 -33 123 -72 147 -68 4 1 56 1 114 0 l106 -1 0 -269
0 -269 -131 -4 c-111 -4 -138 -8 -179 -27 -171 -83 -208 -321 -70 -452 71 -68
119 -82 274 -81 l106 0 0 -269 c0 -193 -3 -269 -11 -270 -6 0 -63 -1 -127 -3
-106 -2 -121 -5 -173 -31 -211 -107 -206 -401 9 -505 39 -19 65 -23 173 -25
l127 -2 7 -59 c34 -270 233 -493 491 -549 93 -20 2922 -21 3017 -1 261 56 473
291 496 551 3 33 7 65 9 71 2 7 42 13 107 16 92 3 111 7 169 35 82 41 141 100
182 182 l32 66 0 1625 0 1625 -31 65 c-70 145 -191 218 -370 223 l-89 2 -7 68
c-22 221 -156 415 -357 513 -134 65 -52 62 -1651 63 -1388 0 -1458 -1 -1526
-19z"/>
</g>
</svg>
